<svg width="14" height="14" viewBox="0 0 14 14" fill="none" xmlns="http://www.w3.org/2000/svg">
<g clip-path="url(#clip0_1222_41904)">
<path d="M5.07635 9.54565H1.57635C1.31114 9.54565 1.05678 9.4403 0.869248 9.25276C0.681712 9.06522 0.576355 8.81087 0.576355 8.54565V1.54565C0.576355 1.28044 0.681712 1.02608 0.869248 0.838548C1.05678 0.651011 1.31114 0.545654 1.57635 0.545654H11.5764C11.8416 0.545654 12.0959 0.651011 12.2835 0.838548C12.471 1.02608 12.5764 1.28044 12.5764 1.54565V6.04565" stroke="black" stroke-linecap="round" stroke-linejoin="round"/>
<path d="M0.576355 1.80566L6.57635 6.04566L12.5764 1.80566" stroke="black" stroke-linecap="round" stroke-linejoin="round"/>
<path d="M7.33955 10.6464C6.98862 10.5853 6.98862 10.0815 7.33955 10.0205C8.61091 9.79929 9.6221 8.83093 9.89805 7.57032L9.9192 7.47369C9.99513 7.12686 10.489 7.1247 10.5679 7.47086L10.5936 7.58347C10.8798 8.83812 11.8912 9.79831 13.1591 10.0189C13.5118 10.0802 13.5118 10.5866 13.1591 10.6479C11.8912 10.8685 10.8798 11.8287 10.5936 13.0834L10.5679 13.196C10.489 13.5421 9.99513 13.54 9.9192 13.1931L9.89805 13.0965C9.6221 11.8359 8.61091 10.8675 7.33955 10.6464Z" stroke="black" stroke-linecap="round" stroke-linejoin="round"/>
</g>
<defs>
<clipPath id="clip0_1222_41904">
<rect width="14" height="14" fill="white"/>
</clipPath>
</defs>
</svg>
