<svg width="14" height="14" viewBox="0 0 14 14" fill="none" xmlns="http://www.w3.org/2000/svg">
<g clip-path="url(#clip0_1222_33613)">
<path d="M2.83351 13.4497L2.4395 12.7863C1.83124 11.7621 2.42646 10.4449 3.59711 10.2246L4.63323 10.0296V5.32182C4.63323 4.55694 5.25329 3.93689 6.01816 3.93689C6.78304 3.93689 7.40309 4.55694 7.40309 5.32182V8.53433H8.89193C10.313 8.53433 11.465 9.68631 11.465 11.1073V13.4497" stroke="black" stroke-linecap="round" stroke-linejoin="round"/>
<path d="M1.71655 1.56592C1.50945 1.56592 1.34155 1.39802 1.34155 1.19092C1.34155 0.983813 1.50945 0.815918 1.71655 0.815918" stroke="black" stroke-linecap="round" stroke-linejoin="round"/>
<path d="M1.71655 1.56592C1.92366 1.56592 2.09155 1.39802 2.09155 1.19092C2.09155 0.983813 1.92366 0.815918 1.71655 0.815918" stroke="black" stroke-linecap="round" stroke-linejoin="round"/>
<path d="M5.97583 1.56592C5.76873 1.56592 5.60083 1.39802 5.60083 1.19092C5.60083 0.983813 5.76873 0.815918 5.97583 0.815918" stroke="black" stroke-linecap="round" stroke-linejoin="round"/>
<path d="M5.97583 1.56592C6.18294 1.56592 6.35083 1.39802 6.35083 1.19092C6.35083 0.983813 6.18294 0.815918 5.97583 0.815918" stroke="black" stroke-linecap="round" stroke-linejoin="round"/>
<path d="M12.8335 1.56592C12.6264 1.56592 12.4585 1.39802 12.4585 1.19092C12.4585 0.983813 12.6264 0.815918 12.8335 0.815918" stroke="black" stroke-linecap="round" stroke-linejoin="round"/>
<path d="M12.8335 1.56592C13.0406 1.56592 13.2085 1.39802 13.2085 1.19092C13.2085 0.983813 13.0406 0.815918 12.8335 0.815918" stroke="black" stroke-linecap="round" stroke-linejoin="round"/>
<path d="M12.8335 5.15283C12.6264 5.15283 12.4585 4.98494 12.4585 4.77783C12.4585 4.57073 12.6264 4.40283 12.8335 4.40283" stroke="black" stroke-linecap="round" stroke-linejoin="round"/>
<path d="M12.8335 5.15283C13.0406 5.15283 13.2085 4.98494 13.2085 4.77783C13.2085 4.57073 13.0406 4.40283 12.8335 4.40283" stroke="black" stroke-linecap="round" stroke-linejoin="round"/>
<path d="M9.93604 5.15283C9.72893 5.15283 9.56104 4.98494 9.56104 4.77783C9.56104 4.57073 9.72893 4.40283 9.93604 4.40283" stroke="black" stroke-linecap="round" stroke-linejoin="round"/>
<path d="M9.93604 5.15283C10.1431 5.15283 10.311 4.98494 10.311 4.77783C10.311 4.57073 10.1431 4.40283 9.93604 4.40283" stroke="black" stroke-linecap="round" stroke-linejoin="round"/>
<path d="M1.71619 5.15283C1.50908 5.15283 1.34119 4.98494 1.34119 4.77783C1.34119 4.57073 1.50908 4.40283 1.71619 4.40283" stroke="black" stroke-linecap="round" stroke-linejoin="round"/>
<path d="M1.71619 5.15283C1.92329 5.15283 2.09119 4.98494 2.09119 4.77783C2.09119 4.57073 1.92329 4.40283 1.71619 4.40283" stroke="black" stroke-linecap="round" stroke-linejoin="round"/>
<path d="M1.71619 8.72156C1.50908 8.72156 1.34119 8.55366 1.34119 8.34656C1.34119 8.13945 1.50908 7.97156 1.71619 7.97156" stroke="black" stroke-linecap="round" stroke-linejoin="round"/>
<path d="M1.71619 8.72156C1.92329 8.72156 2.09119 8.55366 2.09119 8.34656C2.09119 8.13945 1.92329 7.97156 1.71619 7.97156" stroke="black" stroke-linecap="round" stroke-linejoin="round"/>
</g>
<defs>
<clipPath id="clip0_1222_33613">
<rect width="14" height="14" fill="white"/>
</clipPath>
</defs>
</svg>
